<svg width="146" height="146" viewBox="0 0 146 146" fill="none" xmlns="http://www.w3.org/2000/svg">
<g clip-path="url(#clip0_102_69)">
<rect width="146" height="146" rx="26" fill="#00DC72" fill-opacity="0.2"/>
<path d="M70.7311 34.8314L73.1778 34.6375C75.1026 34.6733 76.9294 35.0174 78.6582 35.6696C81.9382 36.9052 84.5437 38.9934 86.4746 41.9346C86.5736 42.075 86.6622 42.2164 86.7402 42.3588C87.7368 44.0401 88.4234 45.8249 88.8 47.7131C88.9486 48.3617 89.044 49.2289 89.086 50.3148C89.0752 50.4225 89.0728 50.5083 89.079 50.5718C89.0495 53.3308 88.4315 55.8556 87.2248 58.1465C85.5466 61.2927 83.0729 63.6151 79.8036 65.1136C78.9651 65.4902 78.0982 65.7946 77.2029 66.0268C76.4326 66.2261 75.5925 66.3679 74.6828 66.4519C73.773 66.5359 72.9205 66.5506 72.1253 66.4957C68.365 66.2448 65.1001 64.837 62.3307 62.2724C60.946 60.9902 59.8315 59.5227 58.9869 57.87C58.2814 56.5464 57.7759 55.0867 57.4707 53.491C57.3221 52.8424 57.2267 51.9752 57.1847 50.8894C57.1955 50.7816 57.1979 50.6959 57.1917 50.6323C57.2212 47.8734 57.8382 45.3379 59.0428 43.0259C60.7018 39.9027 63.1554 37.5929 66.4036 36.0964C67.6296 35.5345 68.8933 35.14 70.1947 34.913C70.3407 34.8781 70.5195 34.8509 70.7311 34.8314ZM73.1837 37.6496L71.1812 37.8025C70.9696 37.822 70.7908 37.8492 70.6448 37.8841C68.8631 38.2196 67.2222 38.9052 65.7222 39.9411C65.1418 40.3366 64.6767 40.7108 64.3269 41.0636L64.152 41.24L68.5414 44.8729L72.9275 48.4739L76.5386 44.1342L80.1465 39.7628L79.9406 39.6215C79.5984 39.3968 79.0798 39.1135 78.3846 38.7717C76.6919 38.052 74.9583 37.6779 73.1837 37.6496ZM67.4329 55.167L71.009 50.7984L66.6197 47.1656L62.2621 43.5298L62.0392 43.8708C61.7632 44.3237 61.521 44.7948 61.3126 45.2841C60.6151 46.8868 60.238 48.599 60.181 50.4204C60.1811 51.2964 60.27 52.207 60.4476 53.152C60.9837 55.581 62.0503 57.6512 63.6477 59.3626L63.825 59.5384L67.4329 55.167ZM83.0186 42.2859C82.8771 42.1494 82.7453 42.0012 82.623 41.8416L82.4456 41.6658L78.8377 46.0371L75.2616 50.4057L79.6192 54.0415L84.0086 57.6744L84.1487 57.4691C85.3863 55.4959 86.0334 53.2675 86.0897 50.7838C86.0895 49.9078 86.0007 48.9972 85.823 48.0522C85.3289 45.8329 84.394 43.9109 83.0186 42.2859ZM77.7324 56.3631L73.3431 52.7302L69.7352 57.1017L66.1242 61.4413L66.4664 61.6662C68.2596 62.7612 70.198 63.3727 72.2812 63.5008C72.9263 63.548 73.6296 63.5365 74.3912 63.4661C75.1529 63.3958 75.8565 63.2774 76.5019 63.111C77.8988 62.7683 79.2582 62.1512 80.5801 61.2601C81.1966 60.7971 81.6513 60.424 81.9438 60.1405L82.1187 59.9641L77.7324 56.3631ZM93.3718 32.7724C93.7423 32.6314 94.1061 32.6404 94.4632 32.7998C94.7506 32.9015 94.9713 33.084 95.125 33.3476C95.2516 33.5496 95.3582 34.0953 95.445 34.9847C95.553 35.872 95.8468 38.7721 96.3264 43.6848C96.9735 50.3128 97.3159 53.7104 97.3536 53.8778C97.6836 55.7276 98.5928 57.2782 100.081 58.5296C101.591 59.7789 103.311 60.4533 105.242 60.5527C106.101 60.6016 106.947 60.5234 107.781 60.3183C109.658 59.8671 111.217 58.8899 112.458 57.3865C113.678 55.8849 114.271 54.1956 114.237 52.3186C114.241 52.1472 113.92 48.7476 113.273 42.1197C112.626 35.4917 112.335 32.0787 112.401 31.8803C112.387 31.9457 112.404 31.9014 112.452 31.7472C112.465 31.6607 112.539 31.5364 112.672 31.3744C113.13 30.8193 113.704 30.6809 114.393 30.9592C114.68 31.0608 114.901 31.2434 115.055 31.5069C115.181 31.709 115.289 32.2652 115.378 33.1758C115.486 34.0632 115.782 36.9844 116.265 41.9395C116.921 48.6521 117.246 52.094 117.242 52.2654L117.198 53.1348C117.027 55.971 115.876 58.3955 113.746 60.4084C112.438 61.6616 110.902 62.5513 109.139 63.0773C108.411 63.2727 107.634 63.4086 106.809 63.4848C105.984 63.561 105.206 63.5687 104.474 63.5081C102.683 63.3103 101.06 62.7551 99.6041 61.8426C96.9045 60.2117 95.205 57.8902 94.5053 54.878C94.4676 54.7106 94.4299 54.5431 94.3922 54.3757C94.3545 54.2082 94.008 50.7683 93.3526 44.0556C92.6994 37.3642 92.4057 33.9192 92.4718 33.7208C92.4547 33.7652 92.4718 33.7208 92.5228 33.5879C92.6548 33.1911 92.9379 32.9194 93.3718 32.7724ZM104.296 41.3463L104.673 41.2794L104.705 41.2765C104.961 41.2742 105.145 41.2999 105.257 41.3537C105.745 41.5437 106.053 41.8571 106.181 42.2939C106.232 42.3748 106.303 42.881 106.394 43.8126L106.524 45.1467L107.952 45.0149L109.412 44.8801L109.646 44.9866C110.31 45.2244 110.654 45.684 110.678 46.3655C110.676 47.0067 110.391 47.471 109.821 47.7587L109.637 47.8399L108.212 48.0035L106.815 48.1325L106.955 49.5618C107.044 50.4724 107.064 51.0047 107.015 51.1588C106.844 51.8155 106.41 52.1761 105.711 52.2407C105.013 52.3051 104.517 52.0304 104.222 51.4167C104.144 51.2743 104.061 50.7479 103.972 49.8373L103.832 48.408L102.436 48.5369L101.036 48.6342L100.808 48.5911C100.193 48.4129 99.8226 48.0091 99.6972 47.3797C99.5887 46.706 99.8373 46.1916 100.443 45.8366L100.685 45.686L102.113 45.5541L103.541 45.4222L103.411 44.0882C103.309 43.0506 103.311 42.4094 103.415 42.1648C103.61 41.7622 103.904 41.4893 104.296 41.3463Z" fill="#3D3D3D"/>
<path d="M71.5697 56.7863L73.3796 59.1058C75.0851 61.7536 76.2083 64.5383 76.7487 67.4599C77.246 70.0891 77.2682 72.7012 76.8159 75.2962C76.3307 78.3261 75.208 81.169 73.4476 83.8245C71.0275 87.5234 67.7784 90.2339 63.6998 91.9559C63.3979 92.0875 63.0892 92.2107 62.7739 92.3255C60.5305 93.1856 58.1937 93.6567 55.7637 93.7389C51.5676 93.9195 47.6028 92.9619 43.8693 90.8664C41.9227 89.7186 40.1753 88.3442 38.6266 86.7432C37.9088 85.9795 37.1776 85.0629 36.433 83.9936C36.3931 83.9436 36.3533 83.8936 36.3134 83.8436C34.6078 81.1957 33.4781 78.4027 32.9242 75.4644C32.4271 72.8352 32.4047 70.2232 32.8571 67.6282C33.3589 64.5849 34.4899 61.7356 36.2503 59.0799C38.6537 55.3943 41.903 52.6838 45.998 50.9485C46.3001 50.8171 46.6087 50.6939 46.924 50.5791C49.9075 49.4565 52.9314 48.9967 55.9958 49.1996C57.6193 49.2966 59.0769 49.5255 60.3687 49.8866C63.4902 50.6711 66.3067 52.0934 68.8184 54.1537C69.7785 54.9152 70.6957 55.7927 71.5697 56.7863ZM61.7711 63.7317L68.4141 58.4409L68.3144 58.316C68.2746 58.266 68.1582 58.1543 67.9655 57.9807C65.5432 55.6584 62.7447 54.0718 59.5701 53.2208C55.5388 52.1799 51.5918 52.4347 47.7288 53.9851C47.3174 54.1492 46.9126 54.3218 46.5143 54.5027C45.5718 54.9535 44.9099 55.3308 44.5284 55.6346L44.4538 55.6941L49.7784 62.3682L55.1031 69.0422L61.7711 63.7317ZM71.1513 62.025C70.892 61.632 70.7508 61.4038 70.7275 61.3406L70.568 61.1406L63.9249 66.4314L57.2569 71.7419L62.5816 78.416L67.9063 85.0902L67.9809 85.0307C68.2131 84.8458 68.5547 84.4919 69.0057 83.9693C70.1631 82.6658 71.1462 81.1608 71.9546 79.4541C73.6443 75.7919 74.1187 71.9664 73.378 67.9779C72.9743 65.8739 72.2321 63.8895 71.1513 62.025ZM45.7481 76.4929L52.4161 71.1824L47.0914 64.5082L41.7666 57.8342L41.692 57.8936C41.4598 58.0785 41.1182 58.4324 40.6672 58.9551C39.4932 60.2717 38.5186 61.7701 37.7433 63.4504C36.0371 67.1258 35.5542 70.9578 36.295 74.9465C36.6988 77.0504 37.4409 79.0347 38.5216 80.8994C38.7942 81.309 38.9355 81.5372 38.9455 81.5837L39.1051 81.7837L45.7481 76.4929ZM65.1445 87.2897L65.2192 87.2302L59.8945 80.5562L54.5698 73.882L47.9019 79.1926L41.2589 84.4833L41.4184 84.6833C42.4652 85.7573 43.6912 86.7159 45.0962 87.5591C48.6837 89.7437 52.5572 90.6377 56.7166 90.2411C58.9639 90.0319 61.1113 89.4254 63.1587 88.4216C64.1011 87.9708 64.763 87.5935 65.1445 87.2897ZM98.3551 87.8097L100.494 90.4396C100.733 90.7395 100.851 90.9044 100.848 90.9343C100.865 91.0573 100.714 91.2592 100.395 91.5401C100.213 91.6854 99.8148 92.0024 99.201 92.4912C95.1969 95.5984 91.2721 98.3973 87.4268 100.888C73.2264 110.017 59.6108 114.456 46.5802 114.206C46.3377 114.208 46.0971 114.195 45.858 114.168C45.7119 114.12 45.4593 113.804 45.1002 113.218C45.0602 113.032 45.1248 112.926 45.2942 112.9C45.3107 112.887 45.6858 112.847 46.4194 112.78C50.1905 112.475 53.933 111.811 57.647 110.788C67.1924 108.2 77.4675 102.974 88.4721 95.1085C89.0958 94.6663 89.7212 94.2091 90.3482 93.737C92.4681 92.2121 94.7307 90.4919 97.1358 88.5764C97.8324 88.0216 98.2388 87.766 98.3551 87.8097Z" fill="#3D3D3D"/>
</g>
<defs>
<clipPath id="clip0_102_69">
<rect width="146" height="146" rx="26" fill="white"/>
</clipPath>
</defs>
</svg>
