<svg width="106" height="41" viewBox="0 0 106 41" fill="none" xmlns="http://www.w3.org/2000/svg">
<g clip-path="url(#clip0_102_74)">
<mask id="mask0_102_74" style="mask-type:luminance" maskUnits="userSpaceOnUse" x="0" y="0" width="106" height="41">
<path d="M106 0H0V41H106V0Z" fill="white"/>
</mask>
<g mask="url(#mask0_102_74)">
<path d="M0.0718856 20.61C0.0328072 20.5709 0.0176101 20.5242 0.0262941 20.4699C0.0382347 20.3851 0.0908815 20.2966 0.184235 20.2043C6.92631 13.5029 13.6521 6.79216 20.3616 0.0722533C20.3862 0.0474784 20.4197 0.0335693 20.4548 0.0335693C20.4899 0.0335693 20.5237 0.0474784 20.5489 0.0722533L40.798 20.3363C40.9 20.4384 40.9 20.54 40.798 20.641L20.5131 40.9408C20.4707 40.9843 20.4278 40.9843 20.3844 40.9408L14.184 34.7326C14.1756 34.7243 14.169 34.7144 14.1645 34.7034C14.16 34.6926 14.1576 34.6809 14.1576 34.669C14.1576 34.6572 14.16 34.6455 14.1645 34.6346C14.169 34.6237 14.1756 34.6138 14.184 34.6055L26.0833 22.699C26.1162 22.6655 26.1581 22.6423 26.2041 22.6322C26.25 22.622 26.2981 22.6254 26.3422 22.642C28.5567 23.4616 29.9342 20.1163 27.7572 19.0897C26.2901 18.3972 24.7595 19.7709 25.095 21.2928C25.108 21.3518 25.1061 21.4131 25.0892 21.4712C25.0725 21.5293 25.0414 21.5822 24.9989 21.6252L13.168 33.4616C13.0876 33.5431 13.0068 33.5431 12.9254 33.4616L0.0718856 20.61ZM27.7927 7.32143L26.7251 6.25302L26.4774 6.50538L14.2019 18.7427C14.1628 18.7828 14.1156 18.797 14.0602 18.785C13.0703 18.5786 12.3376 18.8355 11.8622 19.5558C10.5237 21.578 13.3797 23.6881 14.9184 21.8175C15.3222 21.3264 15.4367 20.7165 15.2619 19.9876C15.2489 19.93 15.263 19.8806 15.3043 19.8393L27.7927 7.32143Z" fill="#3D3D3D"/>
<path d="M46.1433 18.6074C45.6842 16.5689 46.6188 14.5973 48.6427 13.939C50.8734 13.2123 53.2995 13.8314 55.2078 15.1285C55.2412 15.1513 55.2642 15.1863 55.2718 15.226C55.2794 15.2657 55.271 15.3068 55.2485 15.3404L53.959 17.237C53.935 17.2721 53.8983 17.2965 53.8569 17.3047C53.8153 17.3129 53.7725 17.3045 53.7375 17.281C52.5896 16.5151 50.074 15.3452 48.983 16.7238C48.1787 17.7389 49.6343 18.4493 50.4257 18.6709C52.4268 19.2331 55.3658 19.7236 55.6491 22.3291C56.0008 25.5799 53.3842 27.0774 50.5218 26.8834C48.6482 26.7563 47.0025 26.0921 45.5848 24.8906C45.5403 24.8537 45.5365 24.8129 45.5735 24.7684L47.091 22.932C47.13 22.8864 47.174 22.8809 47.2229 22.9157C48.6085 23.8934 49.5952 24.4458 51.4124 24.3675C53.0455 24.2975 53.5926 22.6371 51.8602 21.9886C49.9665 21.2798 46.679 20.9897 46.1433 18.6074Z" fill="#3D3D3D"/>
<path d="M72.6367 13.7532L75.167 13.7337C75.1793 13.7336 75.1909 13.7372 75.2012 13.7439C75.2114 13.7505 75.2197 13.76 75.2244 13.7712L80.6947 26.6211C80.6988 26.6305 80.7009 26.6408 80.6995 26.6511C80.6988 26.6613 80.6954 26.6711 80.6899 26.6797C80.6845 26.6883 80.6763 26.6953 80.6674 26.7002C80.6585 26.705 80.6482 26.7075 80.638 26.7075L77.8129 26.6977C77.8006 26.6976 77.789 26.6938 77.7787 26.6868C77.7684 26.6799 77.7609 26.67 77.7561 26.6586L76.6264 23.8103C76.6216 23.7986 76.6134 23.7885 76.6031 23.7816C76.5922 23.7746 76.5799 23.771 76.5676 23.7712L71.1732 23.7663C71.1602 23.7661 71.1479 23.7697 71.1376 23.7767C71.1274 23.7837 71.1192 23.7937 71.1144 23.8054L69.9634 26.657C69.9586 26.6685 69.9511 26.6783 69.9409 26.6853C69.9306 26.6922 69.9183 26.696 69.906 26.6961L67.1723 26.7108C67.1621 26.7108 67.152 26.7082 67.143 26.7034C67.1339 26.6985 67.1262 26.6915 67.1206 26.6829C67.115 26.6744 67.1115 26.6646 67.1106 26.6543C67.1097 26.6441 67.1113 26.6338 67.1154 26.6244L72.5799 13.7907C72.5847 13.7796 72.5922 13.7701 72.6025 13.7634C72.6127 13.7567 72.6244 13.7532 72.6367 13.7532ZM72.1484 21.2472C72.145 21.2549 72.1436 21.2635 72.145 21.2719C72.1457 21.2803 72.1484 21.2884 72.1532 21.2954C72.158 21.3024 72.1641 21.3083 72.1716 21.3123C72.1792 21.3164 72.1874 21.3187 72.1956 21.3188L75.5322 21.3367C75.5404 21.3369 75.5486 21.3348 75.5568 21.3309C75.5643 21.3269 75.5705 21.3211 75.5753 21.314C75.5801 21.3069 75.5835 21.2988 75.5842 21.2902C75.5848 21.2817 75.5842 21.2731 75.5807 21.2651L73.9326 17.1767C73.9292 17.1673 73.9224 17.1592 73.9135 17.1535C73.9053 17.1478 73.895 17.1448 73.8847 17.1448C73.8745 17.1448 73.8649 17.1478 73.856 17.1535C73.8478 17.1592 73.841 17.1673 73.8369 17.1767L72.1484 21.2472Z" fill="#3D3D3D"/>
<path d="M60.8222 16.3538H57.1863C57.1556 16.3538 57.1262 16.3416 57.1045 16.32C57.0829 16.2982 57.0707 16.2688 57.0707 16.2381V13.9846C57.0707 13.9694 57.0737 13.9543 57.0795 13.9403C57.0853 13.9263 57.0938 13.9135 57.1045 13.9028C57.1153 13.892 57.128 13.8836 57.142 13.8777C57.1561 13.8719 57.1711 13.8689 57.1863 13.8689H67.6169C67.6473 13.8689 67.6765 13.8809 67.6981 13.9022C67.7197 13.9235 67.7321 13.9526 67.7325 13.983L67.7472 16.2463C67.7474 16.2616 67.7445 16.2769 67.7389 16.2911C67.7331 16.3053 67.7246 16.3183 67.7139 16.3291C67.7032 16.3401 67.6903 16.3487 67.6762 16.3546C67.6621 16.3606 67.6469 16.3636 67.6316 16.3636L63.8621 16.3489C63.8315 16.3489 63.8021 16.3611 63.7804 16.3828C63.7587 16.4045 63.7466 16.434 63.7466 16.4646V26.5852C63.7466 26.6159 63.7344 26.6453 63.7127 26.6671C63.691 26.6887 63.6616 26.7009 63.6309 26.7009H61.055C61.0243 26.7009 60.9949 26.6887 60.9733 26.6671C60.9516 26.6453 60.9394 26.6159 60.9394 26.5852L60.9378 16.4696C60.9378 16.4389 60.9256 16.4094 60.9039 16.3877C60.8822 16.366 60.8528 16.3538 60.8222 16.3538Z" fill="#3D3D3D"/>
<path d="M85.8504 22.5051C85.6665 22.5051 85.5741 22.5969 85.5735 22.7804L85.5509 26.6064C85.5509 26.6315 85.5406 26.6555 85.5228 26.6732C85.5051 26.691 85.4811 26.701 85.4558 26.701H82.8783C82.7969 26.701 82.7566 26.6602 82.7566 26.5787V13.952C82.7566 13.9304 82.7648 13.9097 82.7805 13.8944C82.7956 13.8791 82.8161 13.8706 82.838 13.8706C84.997 13.8673 87.1682 13.8678 89.3512 13.8722C94.0487 13.8819 95.0923 20.3689 90.9398 21.9983C90.9138 22.0086 90.8906 22.0247 90.8714 22.0453C90.8523 22.066 90.8379 22.0907 90.8297 22.1176C90.8215 22.1446 90.8187 22.173 90.8235 22.2009C90.8276 22.2288 90.8379 22.2553 90.8536 22.2786C91.8487 23.7337 93.0338 25.1872 93.7915 26.6472C93.8141 26.6896 93.8011 26.7108 93.7519 26.7108L90.7969 26.6961C90.7339 26.6957 90.6724 26.68 90.617 26.6505C90.5616 26.621 90.5144 26.5784 90.4795 26.5266L87.8282 22.5849C87.7926 22.5317 87.7427 22.5051 87.6784 22.5051H85.8504ZM85.5666 16.4696V19.9794C85.5666 20.0114 85.5796 20.042 85.6022 20.0647C85.6247 20.0873 85.6555 20.1 85.6877 20.1H88.6543C88.921 20.1 89.1857 20.0519 89.4332 19.9583C89.6801 19.8649 89.9044 19.7278 90.0932 19.555C90.2819 19.3821 90.4324 19.177 90.5343 18.9512C90.6368 18.7255 90.6895 18.4835 90.6895 18.2391V18.2098C90.6895 17.7163 90.4748 17.243 90.0932 16.894C89.7116 16.545 89.1939 16.349 88.6543 16.349H85.6877C85.6555 16.349 85.6247 16.3617 85.6022 16.3843C85.5796 16.4069 85.5666 16.4376 85.5666 16.4696Z" fill="#3D3D3D"/>
<path d="M99.0682 16.3538H95.3445C95.3199 16.3538 95.2973 16.3442 95.2802 16.3271C95.2631 16.31 95.2535 16.2868 95.2535 16.2626V13.9602C95.2535 13.936 95.2631 13.9127 95.2802 13.8956C95.2973 13.8785 95.3199 13.8689 95.3445 13.8689H105.868C105.892 13.8689 105.915 13.8785 105.932 13.8956C105.949 13.9127 105.959 13.936 105.959 13.9602V16.2626C105.959 16.2868 105.949 16.31 105.932 16.3271C105.915 16.3442 105.892 16.3538 105.868 16.3538H102.02C101.996 16.3538 101.973 16.3634 101.955 16.3806C101.938 16.3977 101.929 16.4209 101.929 16.4451V26.6097C101.929 26.6339 101.919 26.6571 101.902 26.6742C101.885 26.6913 101.862 26.7009 101.838 26.7009H99.2474C99.2234 26.7009 99.2002 26.6913 99.1831 26.6742C99.166 26.6571 99.1564 26.6339 99.1564 26.6097L99.1591 16.4451C99.1591 16.4331 99.1571 16.4212 99.1523 16.4102C99.1482 16.3991 99.1413 16.3891 99.1325 16.3806C99.1242 16.3721 99.114 16.3653 99.103 16.3608C99.0921 16.3562 99.0805 16.3538 99.0682 16.3538Z" fill="#3D3D3D"/>
<path d="M98.9889 38.8909C97.5883 37.7617 97.1555 35.8161 97.6273 34.115C98.567 30.7176 102.629 30.0886 105.191 32.0244C105.226 32.0513 105.255 32.0851 105.276 32.124C105.298 32.1628 105.311 32.2058 105.315 32.25C105.319 32.2942 105.313 32.3387 105.299 32.3807C105.285 32.4226 105.261 32.4612 105.231 32.4936L104.264 33.5414C104.248 33.5594 104.225 33.5708 104.201 33.5732C104.176 33.5756 104.152 33.5689 104.132 33.5544C103.506 33.1026 103.044 32.8397 102.747 32.7658C99.5538 31.9739 98.1306 36.3099 100.765 37.8856C101.962 38.6009 103.121 38.0795 104.204 37.2501C104.259 37.2077 104.312 37.2115 104.362 37.2615L105.316 38.2196C105.338 38.2416 105.356 38.2676 105.367 38.2964C105.379 38.3251 105.385 38.3559 105.385 38.387C105.385 38.4181 105.378 38.4488 105.367 38.4774C105.354 38.506 105.337 38.5319 105.314 38.5536C103.556 40.2809 100.837 40.3819 98.9889 38.8909Z" fill="#3D3D3D"/>
<path d="M83.2825 32.7708H80.7795C80.746 32.7708 80.7132 32.7574 80.6893 32.7336C80.6653 32.7098 80.6516 32.6775 80.651 32.6437L80.6332 31.1787C80.6332 31.1616 80.6359 31.1445 80.6428 31.1286C80.6489 31.1127 80.6585 31.0982 80.6708 31.0861C80.6831 31.0739 80.6975 31.0643 80.7132 31.0578C80.7289 31.0514 80.746 31.0481 80.7631 31.0484L87.8138 31.1054C87.8309 31.1056 87.848 31.1093 87.8637 31.1161C87.8795 31.123 87.8938 31.1329 87.9055 31.1455C87.9171 31.1579 87.9267 31.1726 87.9328 31.1886C87.939 31.2048 87.9417 31.2218 87.941 31.2391L87.887 32.6469C87.8856 32.6802 87.872 32.7116 87.848 32.7347C87.8234 32.7578 87.7919 32.7708 87.7584 32.7708H85.3567C85.3396 32.7708 85.3232 32.774 85.3074 32.7805C85.2917 32.787 85.278 32.7965 85.2657 32.8084C85.2541 32.8204 85.2445 32.8346 85.2377 32.8502C85.2315 32.8658 85.2281 32.8826 85.2281 32.8994L85.2691 39.6747C85.2691 39.692 85.2657 39.709 85.2596 39.7249C85.2527 39.7408 85.2432 39.7553 85.2308 39.7674C85.2192 39.7796 85.2049 39.7892 85.1884 39.7956C85.1727 39.8021 85.1556 39.8053 85.1385 39.8051L83.528 39.8003C83.4938 39.8003 83.4617 39.7867 83.4371 39.7626C83.4131 39.7384 83.3994 39.7056 83.3994 39.6715L83.4111 32.8994C83.4111 32.8653 83.3974 32.8326 83.3735 32.8084C83.3495 32.7843 83.3167 32.7708 83.2825 32.7708Z" fill="#3D3D3D"/>
<path d="M91.4171 38.148H95.9518C95.9812 38.148 96.01 38.1596 96.0305 38.1803C96.0517 38.2011 96.064 38.2292 96.064 38.2587L96.077 39.7008C96.0777 39.7157 96.0749 39.7305 96.0695 39.7444C96.0633 39.7582 96.0551 39.7707 96.0448 39.7814C96.0346 39.792 96.0223 39.8004 96.0086 39.8062C95.9942 39.8119 95.9799 39.8149 95.9648 39.8149L89.5857 39.8182C89.5556 39.8182 89.5269 39.8063 89.5057 39.7852C89.4851 39.7641 89.4728 39.7355 89.4728 39.7057L89.4633 31.182C89.4633 31.1522 89.4749 31.1236 89.4961 31.1024C89.5173 31.0814 89.546 31.0696 89.5754 31.0696L95.9552 31.0923C95.9696 31.0923 95.9847 31.0953 95.9983 31.1009C96.012 31.1065 96.0243 31.1148 96.0346 31.1253C96.0448 31.1357 96.053 31.1481 96.0592 31.1618C96.0647 31.1754 96.0674 31.1901 96.0674 31.2048V32.6583C96.0674 32.673 96.0647 32.6876 96.0592 32.7013C96.053 32.715 96.0448 32.7273 96.0346 32.7378C96.0243 32.7482 96.012 32.7565 95.9983 32.7621C95.9847 32.7678 95.9696 32.7707 95.9552 32.7707H91.4171C91.3877 32.7707 91.3589 32.7826 91.3377 32.8036C91.3165 32.8247 91.3049 32.8534 91.3049 32.8831V34.366C91.3049 34.3958 91.3165 34.4243 91.3377 34.4455C91.3589 34.4666 91.3877 34.4784 91.4171 34.4784L95.3849 34.4882C95.415 34.4882 95.4437 34.5 95.4649 34.5211C95.4854 34.5422 95.4977 34.5708 95.4977 34.6006V36.186C95.4977 36.2009 95.4943 36.2157 95.4888 36.2295C95.4834 36.2432 95.4745 36.2557 95.4642 36.2661C95.4533 36.2766 95.441 36.2848 95.4273 36.2904C95.4129 36.296 95.3986 36.2987 95.3835 36.2985L91.4184 36.2643C91.4041 36.2641 91.389 36.2668 91.3754 36.2723C91.3617 36.2779 91.3487 36.2861 91.3384 36.2966C91.3275 36.3071 91.3193 36.3196 91.3138 36.3333C91.3077 36.347 91.3049 36.3618 91.3049 36.3767V38.0355C91.3049 38.0653 91.3165 38.0939 91.3377 38.115C91.3589 38.1361 91.3877 38.148 91.4171 38.148Z" fill="#3D3D3D"/>
</g>
</g>
<defs>
<clipPath id="clip0_102_74">
<rect width="106" height="41" fill="white"/>
</clipPath>
</defs>
</svg>
